<?xml version="1.0" encoding="UTF-8"?>
<svg version="1.1" xmlns="http://www.w3.org/2000/svg" width="234" height="333">
<path d="M0 0 C77.22 0 154.44 0 234 0 C234 109.89 234 219.78 234 333 C156.78 333 79.56 333 0 333 C0 223.11 0 113.22 0 0 Z " fill="#FEFEFE" transform="translate(0,0)"/>
<path d="M0 0 C5.33739473 1.98844117 8.45333824 4.90667648 11 10 C11.55564585 15.438918 11.46467618 19.52479327 8 24 C8.66386719 24.08636719 9.32773438 24.17273438 10.01171875 24.26171875 C15.8759707 25.19486249 19.1940477 26.12362362 23 31 C25.69897256 35.04845885 25.53620196 38.24958572 25 43 C23.24318129 47.16088642 20.67300073 49.42889949 17 52 C13.38069302 53.20643566 10.80768995 53.32268559 7 53 C4.39152371 51.50254139 2.12971098 50.12971098 0 48 C-0.33 50.97 -0.66 53.94 -1 57 C-2.32 57 -3.64 57 -5 57 C-5.33 54.03 -5.66 51.06 -6 48 C-6.763125 48.639375 -7.52625 49.27875 -8.3125 49.9375 C-12.52246501 53.16840338 -15.79017806 53.35929806 -21 53 C-25.28274867 51.16453628 -28.86642042 48.18846156 -31 44 C-31.94925971 38.9672869 -31.56963072 35.16035887 -29.3125 30.5625 C-24.64017671 25.38506068 -20.71196493 24.56881059 -14 24 C-14.495 23.154375 -14.99 22.30875 -15.5 21.4375 C-17.67561427 16.4517173 -17.70949149 12.90442454 -15.8125 7.8125 C-11.69768058 1.42743538 -7.39120926 -0.49274728 0 0 Z " fill="#030303" transform="translate(120,38)"/>
<path d="M0 0 C1.32 0 2.64 0 4 0 C4.33 2.97 4.66 5.94 5 9 C5.78375 8.360625 6.5675 7.72125 7.375 7.0625 C11.47821171 3.83854795 13.76450289 3.65096686 19 4 C24.11280275 5.84060899 27.10397971 8.40043837 30 13 C30.96578802 17.61058804 30.48450969 21.6648815 28.375 25.875 C24.84635484 30.51795416 21.78736017 31.68288771 16.125 32.6875 C14.578125 32.8421875 14.578125 32.8421875 13 33 C13.7425 33.99 13.7425 33.99 14.5 35 C16.37404707 38.74809414 16.58476458 41.92266891 16 46 C14.28271412 50.69994029 12.13393334 53.20959499 8 56 C4.38069302 57.20643566 1.80768995 57.32268559 -2 57 C-7.08643801 54.26114877 -10.17004027 51.4898792 -12 46 C-12.35029439 40.5704369 -12.37497764 37.49997019 -9 33 C-9.66386719 32.91363281 -10.32773438 32.82726562 -11.01171875 32.73828125 C-16.85356271 31.80870316 -20.25799341 30.91138365 -24 26 C-26.46164501 21.7119732 -27.06206265 17.85061448 -26 13 C-23.40050632 8.85749135 -20.69427586 5.56475862 -16 4 C-10.73945429 3.60297768 -7.51963043 4.2672002 -3 7 C-2.34 7.66 -1.68 8.32 -1 9 C-0.67 6.03 -0.34 3.06 0 0 Z " fill="#030303" transform="translate(115,238)"/>
<path d="M0 0 C77.22 0 154.44 0 234 0 C234 109.89 234 219.78 234 333 C156.78 333 79.56 333 0 333 C0 223.11 0 113.22 0 0 Z M2.97745705 2.74255562 C-0.14291685 7.88271501 0.31160395 12.85170003 0.36508179 18.75402832 C0.35728183 20.06559292 0.34948188 21.37715753 0.34144557 22.72846651 C0.32055788 26.36763935 0.33089553 30.00615727 0.34637666 33.64533257 C0.35767862 37.57043936 0.34023324 41.49543265 0.32647705 45.42051697 C0.30422766 53.10919714 0.30905333 60.79763346 0.32354026 68.48632324 C0.33482584 74.73427514 0.33636636 80.98215863 0.33092117 87.2301178 C0.33015501 88.11888769 0.32938884 89.00765759 0.32859946 89.9233599 C0.32700086 91.72880059 0.32537979 93.53424127 0.3237365 95.33968192 C0.30947402 112.27485546 0.32587954 129.20989374 0.35273834 146.1450451 C0.37507758 160.6805861 0.37119759 175.21592745 0.34814453 189.75146484 C0.32139532 206.62545354 0.31084737 223.49932365 0.32620585 240.37333059 C0.32779862 242.17218111 0.32937047 243.97103165 0.33092117 245.7698822 C0.33169255 246.6549831 0.33246393 247.540084 0.33325868 248.45200613 C0.33757832 254.69346127 0.33028345 260.93484128 0.31852341 267.17628479 C0.30450962 274.78113979 0.3082746 282.3857367 0.33492713 289.99056208 C0.34808061 293.87177145 0.3531921 297.75255032 0.33668137 301.63375664 C0.31906588 305.83820418 0.34007791 310.04156194 0.36508179 314.24597168 C0.35392818 315.47699128 0.34277457 316.70801087 0.33128297 317.9763341 C0.39933356 324.44648878 0.39933356 324.44648878 2.97745705 330.25744438 C7.10356118 332.63622478 10.30490513 332.69677357 14.99560547 332.63491821 C16.35654485 332.64661814 16.35654485 332.64661814 17.74497795 332.65855443 C20.78612714 332.67850317 23.82602896 332.66269837 26.8671875 332.64697266 C29.04698416 332.65374748 31.2267751 332.66264984 33.40655518 332.67352295 C39.32803601 332.6963387 45.24908182 332.68747028 51.17057037 332.67162752 C57.36356287 332.65898047 63.55651778 332.67070532 69.74951172 332.67855835 C80.81658147 332.68824147 91.88345849 332.67269015 102.95049739 332.64726166 C112.98337246 332.62492298 123.01595827 332.62880317 133.04882812 332.65185547 C144.70180149 332.67852375 156.35459384 332.68857074 168.00759315 332.67379415 C174.17535982 332.66599356 180.34292724 332.66497496 186.51068115 332.68147659 C192.3089255 332.69590562 198.10662287 332.68592764 203.90480804 332.65700531 C206.03450359 332.65038621 208.16424506 332.65230615 210.29392242 332.66331863 C213.1980374 332.67695272 216.10039219 332.65988378 219.00439453 332.63491821 C219.85021025 332.64607182 220.69602596 332.65722543 221.56747246 332.66871703 C225.44778432 332.60386789 227.60770314 332.22616688 231.02254295 330.25744438 C234.14291685 325.11728499 233.68839605 320.14829997 233.63491821 314.24597168 C233.64271817 312.93440708 233.65051812 311.62284247 233.65855443 310.27153349 C233.67944212 306.63236065 233.66910447 302.99384273 233.65362334 299.35466743 C233.64232138 295.42956064 233.65976676 291.50456735 233.67352295 287.57948303 C233.69577234 279.89080286 233.69094667 272.20236654 233.67645974 264.51367676 C233.66517416 258.26572486 233.66363364 252.01784137 233.66907883 245.7698822 C233.67022807 244.43672736 233.67022807 244.43672736 233.67140054 243.0766401 C233.67299914 241.27119941 233.67462021 239.46575873 233.6762635 237.66031808 C233.69052598 220.72514454 233.67412046 203.79010626 233.64726166 186.8549549 C233.62492242 172.3194139 233.62880241 157.78407255 233.65185547 143.24853516 C233.67860468 126.37454646 233.68915263 109.50067635 233.67379415 92.62666941 C233.67220138 90.82781889 233.67062953 89.02896835 233.66907883 87.2301178 C233.66792176 85.90246645 233.66792176 85.90246645 233.66674132 84.54799387 C233.66242168 78.30653873 233.66971655 72.06515872 233.68147659 65.82371521 C233.69549038 58.21886021 233.6917254 50.6142633 233.66507287 43.00943792 C233.65191939 39.12822855 233.6468079 35.24744968 233.66331863 31.36624336 C233.68093412 27.16179582 233.65992209 22.95843806 233.63491821 18.75402832 C233.64607182 17.52300872 233.65722543 16.29198913 233.66871703 15.0236659 C233.60066644 8.55351122 233.60066644 8.55351122 231.02254295 2.74255562 C226.89643882 0.36377522 223.69509487 0.30322643 219.00439453 0.36508179 C218.09710161 0.35728183 217.18980869 0.34948188 216.25502205 0.34144557 C213.21387286 0.32149683 210.17397104 0.33730163 207.1328125 0.35302734 C204.95301584 0.34625252 202.7732249 0.33735016 200.59344482 0.32647705 C194.67196399 0.3036613 188.75091818 0.31252972 182.82942963 0.32837248 C176.63643713 0.34101953 170.44348222 0.32929468 164.25048828 0.32144165 C153.18341853 0.31175853 142.11654151 0.32730985 131.04950261 0.35273834 C121.01662754 0.37507702 110.98404173 0.37119683 100.95117188 0.34814453 C89.29819851 0.32147625 77.64540616 0.31142926 65.99240685 0.32620585 C59.82464018 0.33400644 53.65707276 0.33502504 47.48931885 0.31852341 C41.6910745 0.30409438 35.89337713 0.31407236 30.09519196 0.34299469 C27.96549641 0.34961379 25.83575494 0.34769385 23.70607758 0.33668137 C20.8019626 0.32304728 17.89960781 0.34011622 14.99560547 0.36508179 C14.14978975 0.35392818 13.30397404 0.34277457 12.43252754 0.33128297 C8.55221568 0.39613211 6.39229686 0.77383312 2.97745705 2.74255562 Z " fill="#969696" transform="translate(0,0)"/>
<path d="M0 0 C2.64 0 5.28 0 8 0 C8 109.89 8 219.78 8 333 C5.36 333 2.72 333 0 333 C0.804375 332.38125 1.60875 331.7625 2.4375 331.125 C5.03874519 329.25835959 5.03874519 329.25835959 6 327 C6.09775702 325.25279449 6.13100168 323.50183682 6.13422108 321.75190163 C6.13867892 320.63221635 6.14313676 319.51253106 6.14772969 318.35891593 C6.14754533 317.11847568 6.14736097 315.87803544 6.14717102 314.6000061 C6.15084771 313.29029921 6.1545244 311.98059232 6.1583125 310.63119733 C6.16834949 306.98353177 6.17205201 303.33588266 6.17470181 299.68820524 C6.17859976 295.75901302 6.18817835 291.8298339 6.19691467 287.90065002 C6.21669212 278.40639207 6.22674631 268.91213302 6.23564246 259.41785961 C6.24002273 254.95043083 6.24539016 250.48300325 6.25063133 246.01557541 C6.26764388 231.17151193 6.28213952 216.32744919 6.28938007 201.48337746 C6.29129006 197.62986882 6.29321038 193.77636018 6.29516602 189.92285156 C6.29564976 188.96504447 6.2961335 188.00723737 6.2966319 187.02040581 C6.30493769 171.4938351 6.33028375 155.9673413 6.36274669 140.4408042 C6.39578002 124.51206521 6.4138254 108.58336535 6.41702431 92.65459192 C6.41919273 83.70623976 6.42798982 74.75799979 6.45348549 65.80968094 C6.47514155 58.19124196 6.48326809 50.5729424 6.47351871 42.95447613 C6.4689593 39.06534594 6.47095471 35.17650374 6.49028015 31.28741264 C6.51102688 27.07605722 6.50097411 22.86534663 6.48774719 18.65396118 C6.49871644 17.41798238 6.50968568 16.18200359 6.52098733 14.90857089 C6.50811599 13.22121972 6.50811599 13.22121972 6.49498463 11.49978065 C6.49596144 10.52726187 6.49693824 9.55474309 6.49794465 8.55275404 C5.85667758 5.26524587 4.51373755 4.13824918 2 2 C1.34 1.34 0.68 0.68 0 0 Z " fill="#8F8F8F" transform="translate(226,0)"/>
<path d="M0 0 C3.61610678 0.80754954 5.00970065 2.39594274 6.9765625 5.44140625 C7.40426986 9.10746937 7.51519349 10.25059216 5.9765625 13.44140625 C3.54442653 16.05292789 0.99153366 18.30419965 -1.7734375 20.55859375 C-4.09057165 22.24322135 -4.09057165 22.24322135 -5.0234375 24.44140625 C-2.3834375 24.44140625 0.2565625 24.44140625 2.9765625 24.44140625 C3.3065625 23.45140625 3.6365625 22.46140625 3.9765625 21.44140625 C4.9665625 21.44140625 5.9565625 21.44140625 6.9765625 21.44140625 C6.9765625 23.75140625 6.9765625 26.06140625 6.9765625 28.44140625 C1.0365625 28.44140625 -4.9034375 28.44140625 -11.0234375 28.44140625 C-9.8065755 21.14023423 -7.56547812 19.69457862 -2.2734375 15.00390625 C0.29798932 12.07533682 0.70917203 10.27400296 0.9765625 6.44140625 C-0.6734375 6.11140625 -2.3234375 5.78140625 -4.0234375 5.44140625 C-4.6834375 7.09140625 -5.3434375 8.74140625 -6.0234375 10.44140625 C-7.6734375 10.44140625 -9.3234375 10.44140625 -11.0234375 10.44140625 C-10.72094671 7.11400752 -10.31109579 4.87864685 -8.4609375 2.06640625 C-5.6224682 0.17409338 -3.40417046 -0.19762038 0 0 Z " fill="#0E0E0E" transform="translate(19.0234375,7.55859375)"/>
<path d="M0 0 C5.94 0 11.88 0 18 0 C17.04091512 4.79542442 16.76138628 5.75165461 13.6875 9.0625 C13.06101563 9.75085938 12.43453125 10.43921875 11.7890625 11.1484375 C10.4349594 12.54984551 9.01282555 13.88592579 7.5625 15.1875 C5.73561095 16.95137843 5.73561095 16.95137843 5.75 19.75 C5.8325 20.4925 5.915 21.235 6 22 C7.65 22.33 9.3 22.66 11 23 C11.4125 22.175 11.825 21.35 12.25 20.5 C12.8275 19.675 13.405 18.85 14 18 C15.32 18 16.64 18 18 18 C17.74624791 21.72169726 17.39626084 23.55712024 14.875 26.375 C11.20040562 28.45194465 9.16245773 28.66896642 5 28 C1.69112666 25.60634694 0.26637701 24.11394022 -0.6875 20.125 C0.72261071 13.71540587 5.99017726 9.8647204 11 6 C11.33 5.34 11.66 4.68 12 4 C9.36 4 6.72 4 4 4 C3.67 4.99 3.34 5.98 3 7 C2.01 7 1.02 7 0 7 C0 4.69 0 2.38 0 0 Z " fill="#0C0C0C" transform="translate(208,297)"/>
<path d="M0 0 C3.0625 0.1875 3.0625 0.1875 5.0625 2.1875 C4.6875 4.8125 4.6875 4.8125 4.0625 7.1875 C4.866875 7.414375 5.67125 7.64125 6.5 7.875 C9.0625 9.1875 9.0625 9.1875 10.0625 11.625 C10.0625 14.1875 10.0625 14.1875 9 16.0625 C6.15528149 17.71427204 4.16057413 16.94480701 1.0625 16.1875 C1.0625 16.8475 1.0625 17.5075 1.0625 18.1875 C-6.6875 17.4375 -6.6875 17.4375 -8.9375 15.1875 C-9.375 12.75 -9.375 12.75 -8.9375 10.1875 C-8.1125 9.713125 -7.2875 9.23875 -6.4375 8.75 C-5.2 7.9765625 -5.2 7.9765625 -3.9375 7.1875 C-3.60388081 4.10358998 -3.60388081 4.10358998 -3.9375 1.1875 C-2.9375 0.1875 -2.9375 0.1875 0 0 Z " fill="#090909" transform="translate(16.9375,42.8125)"/>
<path d="M0 0 C0.66 0.66 1.32 1.32 2 2 C3.2065625 1.7215625 3.2065625 1.7215625 4.4375 1.4375 C7 1 7 1 8.875 2.125 C10 4 10 4 9.6875 6.6875 C9.460625 7.450625 9.23375 8.21375 9 9 C7.35 9.33 5.7 9.66 4 10 C4.20625 10.94875 4.4125 11.8975 4.625 12.875 C4.74875 13.90625 4.8725 14.9375 5 16 C3 18 3 18 -0.125 18.125 C-1.548125 18.063125 -1.548125 18.063125 -3 18 C-3.061875 16.906875 -3.12375 15.81375 -3.1875 14.6875 C-3.455625 13.470625 -3.72375 12.25375 -4 11 C-5.64142963 9.9590934 -7.30712215 8.95495674 -9 8 C-9.4375 5.4375 -9.4375 5.4375 -9 3 C-7 1 -7 1 -4.4375 0.8125 C-2 1 -2 1 -1 2 C-0.67 1.34 -0.34 0.68 0 0 Z " fill="#080808" transform="translate(217,272)"/>
<path d="M0 0 C0.5775 0.763125 1.155 1.52625 1.75 2.3125 C3.71703093 4.66200917 5.48476744 6.29323505 8 8 C5.36 8 2.72 8 0 8 C0 5.36 0 2.72 0 0 Z " fill="#4E4E4E" transform="translate(0,325)"/>
<path d="M0 0 C2.64 0 5.28 0 8 0 C8 2.64 8 5.28 8 8 C7.4225 7.236875 6.845 6.47375 6.25 5.6875 C4.28296907 3.33799083 2.51523256 1.70676495 0 0 Z " fill="#4E4E4E" transform="translate(226,0)"/>
<path d="M0 0 C2.31 0 4.62 0 7 0 C6.02433888 1.16959987 5.044375 2.33561177 4.0625 3.5 C3.51722656 4.1496875 2.97195312 4.799375 2.41015625 5.46875 C1.94480469 5.9740625 1.47945313 6.479375 1 7 C0.67 7 0.34 7 0 7 C0 4.69 0 2.38 0 0 Z " fill="#484848" transform="translate(0,0)"/>
</svg>
