<?xml version="1.0" encoding="UTF-8"?>
<svg version="1.1" xmlns="http://www.w3.org/2000/svg" width="234" height="333">
<path d="M0 0 C77.22 0 154.44 0 234 0 C234 109.89 234 219.78 234 333 C156.78 333 79.56 333 0 333 C0 223.11 0 113.22 0 0 Z " fill="#FEFEFE" transform="translate(0,0)"/>
<path d="M0 0 C5.33739473 1.98844117 8.45333824 4.90667648 11 10 C11.55564585 15.438918 11.46467618 19.52479327 8 24 C8.66386719 24.08636719 9.32773438 24.17273438 10.01171875 24.26171875 C15.8759707 25.19486249 19.1940477 26.12362362 23 31 C25.70827845 35.06241767 25.64175877 38.23038545 25 43 C23.69767994 46.67465444 21.74716896 49.33822178 18.8125 51.9375 C14.81952453 53.4459574 11.21718647 53.58168089 7 53 C4.03087118 51.61019502 2.30342972 50.30342972 0 48 C-0.33 50.97 -0.66 53.94 -1 57 C-2.32 57 -3.64 57 -5 57 C-5.33 54.03 -5.66 51.06 -6 48 C-6.763125 48.639375 -7.52625 49.27875 -8.3125 49.9375 C-12.10705608 52.84960118 -15.17749247 53.35609387 -19.9375 53.27734375 C-23.42504073 52.8083752 -25.4041149 51.29403799 -28 49 C-31.29799116 44.27287934 -31.90379228 39.60351216 -31 34 C-28.79063905 29.58127809 -26.54913781 26.96440042 -22 25 C-19.32065649 24.49107442 -16.72550684 24.23097516 -14 24 C-14.495 23.154375 -14.99 22.30875 -15.5 21.4375 C-17.67561427 16.4517173 -17.70949149 12.90442454 -15.8125 7.8125 C-11.69768058 1.42743538 -7.39120926 -0.49274728 0 0 Z " fill="#030303" transform="translate(120,138)"/>
<path d="M0 0 C1.32 0 2.64 0 4 0 C4.33 2.64 4.66 5.28 5 8 C6.175625 7.0409375 6.175625 7.0409375 7.375 6.0625 C11.47821171 2.83854795 13.76450289 2.65096686 19 3 C23.78784068 4.72362265 27.71739615 7.34737343 30 12 C30.94187372 17.03697686 30.5717539 20.83531614 28.3125 25.4375 C25.33497018 28.73692494 23.25745037 30.82898103 18.6796875 31.17578125 C16.44385528 31.18629457 14.2316236 31.13127198 12 31 C12.66 31.804375 13.32 32.60875 14 33.4375 C16.66643687 37.46572428 16.83357858 41.31006799 16 46 C13.79677198 50.324855 11.24309748 53.60172751 7 56 C2.65492911 56.85719086 -1.22870298 57.03487866 -5.1328125 54.75390625 C-8.41923674 51.99688507 -11.65100024 49.13440907 -12.37109375 44.73046875 C-12.490828 40.14535114 -12.54580221 36.99027231 -9.5 33.375 C-8.675 32.59125 -7.85 31.8075 -7 31 C-7.65226562 31.04640625 -8.30453125 31.0928125 -8.9765625 31.140625 C-14.87712549 31.38430607 -18.41883824 31.13421915 -23 27 C-26.33262847 23.22302107 -26.62651513 19.38237568 -26.48828125 14.5078125 C-25.66908407 10.30041579 -23.27790303 7.64638043 -20 5 C-16.21165663 2.77899085 -13.40227294 2.62049371 -9 3 C-5.72808708 4.35815253 -3.50104494 5.49895506 -1 8 C-0.67 5.36 -0.34 2.72 0 0 Z " fill="#030303" transform="translate(115,239)"/>
<path d="M0 0 C3.69186389 2.29315773 7.03497758 5.06995515 9 9 C9.52274617 14.67983816 9.71435943 19.35705072 6 24 C6.66386719 24.09796875 7.32773438 24.1959375 8.01171875 24.296875 C13.32573102 25.19676613 17.1683653 25.92888813 21 30 C23.52063898 34.25469558 23.68858311 38.1631235 23 43 C20.34641502 48.11762818 17.46882174 51.17705942 12 53 C6.27882393 53.53973359 3.50374305 52.53865525 -1 49 C-1.495 48.505 -1.495 48.505 -2 48 C-2.33 50.64 -2.66 53.28 -3 56 C-4.32 56 -5.64 56 -7 56 C-7.33 53.36 -7.66 50.72 -8 48 C-8.763125 48.639375 -9.52625 49.27875 -10.3125 49.9375 C-14.5114346 53.15993818 -17.79710998 53.44092288 -23 53 C-27.61862787 50.42422676 -31.30640263 48.0807921 -33 43 C-33.54885106 38.2762819 -33.46596728 34.89865118 -31.25 30.625 C-26.56948707 25.16440158 -26.56948707 25.16440158 -22.203125 24.70703125 C-21.22859375 24.74183594 -20.2540625 24.77664062 -19.25 24.8125 C-17.77273437 24.85310547 -17.77273437 24.85310547 -16.265625 24.89453125 C-15.51796875 24.92933594 -14.7703125 24.96414062 -14 25 C-14.639375 24.401875 -15.27875 23.80375 -15.9375 23.1875 C-19.23556135 19.68955614 -19.50733935 16.05467013 -19.4921875 11.42578125 C-18.57913022 6.92571322 -15.34743043 3.96876183 -12 1 C-8.20585906 -0.89707047 -4.11078682 -0.75394343 0 0 Z " fill="#030303" transform="translate(122,38)"/>
<path d="M0 0 C77.22 0 154.44 0 234 0 C234 109.89 234 219.78 234 333 C156.78 333 79.56 333 0 333 C0 223.11 0 113.22 0 0 Z M2.97745705 2.74255562 C-0.14291685 7.88271501 0.31160395 12.85170003 0.36508179 18.75402832 C0.35728183 20.06559292 0.34948188 21.37715753 0.34144557 22.72846651 C0.32055788 26.36763935 0.33089553 30.00615727 0.34637666 33.64533257 C0.35767862 37.57043936 0.34023324 41.49543265 0.32647705 45.42051697 C0.30422766 53.10919714 0.30905333 60.79763346 0.32354026 68.48632324 C0.33482584 74.73427514 0.33636636 80.98215863 0.33092117 87.2301178 C0.33015501 88.11888769 0.32938884 89.00765759 0.32859946 89.9233599 C0.32700086 91.72880059 0.32537979 93.53424127 0.3237365 95.33968192 C0.30947402 112.27485546 0.32587954 129.20989374 0.35273834 146.1450451 C0.37507758 160.6805861 0.37119759 175.21592745 0.34814453 189.75146484 C0.32139532 206.62545354 0.31084737 223.49932365 0.32620585 240.37333059 C0.32779862 242.17218111 0.32937047 243.97103165 0.33092117 245.7698822 C0.33169255 246.6549831 0.33246393 247.540084 0.33325868 248.45200613 C0.33757832 254.69346127 0.33028345 260.93484128 0.31852341 267.17628479 C0.30450962 274.78113979 0.3082746 282.3857367 0.33492713 289.99056208 C0.34808061 293.87177145 0.3531921 297.75255032 0.33668137 301.63375664 C0.31906588 305.83820418 0.34007791 310.04156194 0.36508179 314.24597168 C0.35392818 315.47699128 0.34277457 316.70801087 0.33128297 317.9763341 C0.39933356 324.44648878 0.39933356 324.44648878 2.97745705 330.25744438 C7.10356118 332.63622478 10.30490513 332.69677357 14.99560547 332.63491821 C16.35654485 332.64661814 16.35654485 332.64661814 17.74497795 332.65855443 C20.78612714 332.67850317 23.82602896 332.66269837 26.8671875 332.64697266 C29.04698416 332.65374748 31.2267751 332.66264984 33.40655518 332.67352295 C39.32803601 332.6963387 45.24908182 332.68747028 51.17057037 332.67162752 C57.36356287 332.65898047 63.55651778 332.67070532 69.74951172 332.67855835 C80.81658147 332.68824147 91.88345849 332.67269015 102.95049739 332.64726166 C112.98337246 332.62492298 123.01595827 332.62880317 133.04882812 332.65185547 C144.70180149 332.67852375 156.35459384 332.68857074 168.00759315 332.67379415 C174.17535982 332.66599356 180.34292724 332.66497496 186.51068115 332.68147659 C192.3089255 332.69590562 198.10662287 332.68592764 203.90480804 332.65700531 C206.03450359 332.65038621 208.16424506 332.65230615 210.29392242 332.66331863 C213.1980374 332.67695272 216.10039219 332.65988378 219.00439453 332.63491821 C219.85021025 332.64607182 220.69602596 332.65722543 221.56747246 332.66871703 C225.44778432 332.60386789 227.60770314 332.22616688 231.02254295 330.25744438 C234.14291685 325.11728499 233.68839605 320.14829997 233.63491821 314.24597168 C233.64271817 312.93440708 233.65051812 311.62284247 233.65855443 310.27153349 C233.67944212 306.63236065 233.66910447 302.99384273 233.65362334 299.35466743 C233.64232138 295.42956064 233.65976676 291.50456735 233.67352295 287.57948303 C233.69577234 279.89080286 233.69094667 272.20236654 233.67645974 264.51367676 C233.66517416 258.26572486 233.66363364 252.01784137 233.66907883 245.7698822 C233.67022807 244.43672736 233.67022807 244.43672736 233.67140054 243.0766401 C233.67299914 241.27119941 233.67462021 239.46575873 233.6762635 237.66031808 C233.69052598 220.72514454 233.67412046 203.79010626 233.64726166 186.8549549 C233.62492242 172.3194139 233.62880241 157.78407255 233.65185547 143.24853516 C233.67860468 126.37454646 233.68915263 109.50067635 233.67379415 92.62666941 C233.67220138 90.82781889 233.67062953 89.02896835 233.66907883 87.2301178 C233.66792176 85.90246645 233.66792176 85.90246645 233.66674132 84.54799387 C233.66242168 78.30653873 233.66971655 72.06515872 233.68147659 65.82371521 C233.69549038 58.21886021 233.6917254 50.6142633 233.66507287 43.00943792 C233.65191939 39.12822855 233.6468079 35.24744968 233.66331863 31.36624336 C233.68093412 27.16179582 233.65992209 22.95843806 233.63491821 18.75402832 C233.64607182 17.52300872 233.65722543 16.29198913 233.66871703 15.0236659 C233.60066644 8.55351122 233.60066644 8.55351122 231.02254295 2.74255562 C226.89643882 0.36377522 223.69509487 0.30322643 219.00439453 0.36508179 C218.09710161 0.35728183 217.18980869 0.34948188 216.25502205 0.34144557 C213.21387286 0.32149683 210.17397104 0.33730163 207.1328125 0.35302734 C204.95301584 0.34625252 202.7732249 0.33735016 200.59344482 0.32647705 C194.67196399 0.3036613 188.75091818 0.31252972 182.82942963 0.32837248 C176.63643713 0.34101953 170.44348222 0.32929468 164.25048828 0.32144165 C153.18341853 0.31175853 142.11654151 0.32730985 131.04950261 0.35273834 C121.01662754 0.37507702 110.98404173 0.37119683 100.95117188 0.34814453 C89.29819851 0.32147625 77.64540616 0.31142926 65.99240685 0.32620585 C59.82464018 0.33400644 53.65707276 0.33502504 47.48931885 0.31852341 C41.6910745 0.30409438 35.89337713 0.31407236 30.09519196 0.34299469 C27.96549641 0.34961379 25.83575494 0.34769385 23.70607758 0.33668137 C20.8019626 0.32304728 17.89960781 0.34011622 14.99560547 0.36508179 C14.14978975 0.35392818 13.30397404 0.34277457 12.43252754 0.33128297 C8.55221568 0.39613211 6.39229686 0.77383312 2.97745705 2.74255562 Z " fill="#969696" transform="translate(0,0)"/>
<path d="M0 0 C2.64 0 5.28 0 8 0 C8 109.89 8 219.78 8 333 C5.36 333 2.72 333 0 333 C0.804375 332.38125 1.60875 331.7625 2.4375 331.125 C5.03874519 329.25835959 5.03874519 329.25835959 6 327 C6.09775702 325.25279449 6.13100168 323.50183682 6.13422108 321.75190163 C6.13867892 320.63221635 6.14313676 319.51253106 6.14772969 318.35891593 C6.14754533 317.11847568 6.14736097 315.87803544 6.14717102 314.6000061 C6.15084771 313.29029921 6.1545244 311.98059232 6.1583125 310.63119733 C6.16834949 306.98353177 6.17205201 303.33588266 6.17470181 299.68820524 C6.17859976 295.75901302 6.18817835 291.8298339 6.19691467 287.90065002 C6.21669212 278.40639207 6.22674631 268.91213302 6.23564246 259.41785961 C6.24002273 254.95043083 6.24539016 250.48300325 6.25063133 246.01557541 C6.26764388 231.17151193 6.28213952 216.32744919 6.28938007 201.48337746 C6.29129006 197.62986882 6.29321038 193.77636018 6.29516602 189.92285156 C6.29564976 188.96504447 6.2961335 188.00723737 6.2966319 187.02040581 C6.30493769 171.4938351 6.33028375 155.9673413 6.36274669 140.4408042 C6.39578002 124.51206521 6.4138254 108.58336535 6.41702431 92.65459192 C6.41919273 83.70623976 6.42798982 74.75799979 6.45348549 65.80968094 C6.47514155 58.19124196 6.48326809 50.5729424 6.47351871 42.95447613 C6.4689593 39.06534594 6.47095471 35.17650374 6.49028015 31.28741264 C6.51102688 27.07605722 6.50097411 22.86534663 6.48774719 18.65396118 C6.49871644 17.41798238 6.50968568 16.18200359 6.52098733 14.90857089 C6.50811599 13.22121972 6.50811599 13.22121972 6.49498463 11.49978065 C6.49596144 10.52726187 6.49693824 9.55474309 6.49794465 8.55275404 C5.85667758 5.26524587 4.51373755 4.13824918 2 2 C1.34 1.34 0.68 0.68 0 0 Z " fill="#8F8F8F" transform="translate(226,0)"/>
<path d="M0 0 C2.5625 1.625 2.5625 1.625 4 4 C4.25 7.25 4.25 7.25 4 10 C2.68 10 1.36 10 0 10 C-0.66 8.35 -1.32 6.7 -2 5 C-3.66611905 4.957279 -5.33382885 4.95936168 -7 5 C-8.29633621 6.06645115 -8.29633621 6.06645115 -8.0625 8.5625 C-8.041875 9.366875 -8.02125 10.17125 -8 11 C-6.68 11.66 -5.36 12.32 -4 13 C-4 14.32 -4 15.64 -4 17 C-5.32 17.33 -6.64 17.66 -8 18 C-7.67 19.65 -7.34 21.3 -7 23 C-4.58354218 23.16687448 -4.58354218 23.16687448 -2 23 C-1.34 22.34 -0.68 21.68 0 21 C1.32 21 2.64 21 4 21 C3.6875 23.375 3.6875 23.375 3 26 C-0.21830065 28.14553377 -1.26786507 28.29583868 -5 28.3125 C-6.299375 28.33763672 -6.299375 28.33763672 -7.625 28.36328125 C-10 28 -10 28 -11.79296875 26.69921875 C-13.78497734 23.89493481 -13.2963342 21.31894304 -13 18 C-12.34 17.01 -11.68 16.02 -11 15 C-11.495 14.67 -11.99 14.34 -12.5 14 C-14.45260816 11.39652245 -14.54985674 9.14538836 -14.40234375 5.94140625 C-14 4 -14 4 -12.0625 1.5 C-7.9400692 -0.51914978 -4.50935796 -0.82447216 0 0 Z " fill="#0C0C0C" transform="translate(222,297)"/>
<path d="M0 0 C2.5625 1.0625 2.5625 1.0625 4 3 C4.46913089 7.37855495 4.46943529 9.29584707 2 13 C2.495 13.33 2.99 13.66 3.5 14 C5.5436938 16.72492507 5.42147182 18.79394558 5.29296875 22.12890625 C5 24 5 24 3.6875 25.9375 C-0.11800232 28.33355702 -3.62004443 28.37758238 -8 28 C-10.9375 26.375 -10.9375 26.375 -13 24 C-13.3125 20.75 -13.3125 20.75 -13 18 C-11.68 18 -10.36 18 -9 18 C-8.34 19.65 -7.68 21.3 -7 23 C-5.33388095 23.042721 -3.66617115 23.04063832 -2 23 C-0.70366379 21.93354885 -0.70366379 21.93354885 -0.9375 19.4375 C-0.958125 18.633125 -0.97875 17.82875 -1 17 C-2.32 16.34 -3.64 15.68 -5 15 C-4.67 13.35 -4.34 11.7 -4 10 C-3.01 10 -2.02 10 -1 10 C-1.33 8.35 -1.66 6.7 -2 5 C-4.41645782 4.83312552 -4.41645782 4.83312552 -7 5 C-7.66 5.66 -8.32 6.32 -9 7 C-10.32 7 -11.64 7 -13 7 C-12.6875 4.625 -12.6875 4.625 -12 2 C-7.95313464 -0.69791024 -4.74549114 -0.53108385 0 0 Z " fill="#0C0C0C" transform="translate(21,8)"/>
<path d="M0 0 C3.29714793 0.32971479 4.6226839 0.6226839 7 3 C7.144375 3.825 7.28875 4.65 7.4375 5.5 C7.7765556 8.34936529 7.7765556 8.34936529 11 10 C11.3125 13 11.3125 13 11 16 C10.34 16.66 9.68 17.32 9 18 C5.875 17.625 5.875 17.625 3 17 C3 17.66 3 18.32 3 19 C2.34 19 1.68 19 1 19 C1 18.34 1 17.68 1 17 C0.05125 17.20625 -0.8975 17.4125 -1.875 17.625 C-2.90625 17.74875 -3.9375 17.8725 -5 18 C-7 16 -7 16 -7.375 13.0625 C-7 10 -7 10 -5.0625 8.4375 C-4.381875 7.963125 -3.70125 7.48875 -3 7 C-2.34444881 4.47266765 -2.34444881 4.47266765 -2 2 C-1.34 1.34 -0.68 0.68 0 0 Z " fill="#101010" transform="translate(15,42)"/>
<path d="M0 0 C0.66 0.66 1.32 1.32 2 2 C3.2065625 1.7215625 3.2065625 1.7215625 4.4375 1.4375 C7 1 7 1 8.875 2.125 C10 4 10 4 9.6875 6.6875 C9.460625 7.450625 9.23375 8.21375 9 9 C7.35 9.33 5.7 9.66 4 10 C4.33 12.31 4.66 14.62 5 17 C2 19 2 19 -0.6875 18.625 C-1.8321875 18.315625 -1.8321875 18.315625 -3 18 C-4.125 12.25 -4.125 12.25 -3 10 C-4.65 9.67 -6.3 9.34 -8 9 C-8.6875 6.6875 -8.6875 6.6875 -9 4 C-7.875 2.125 -7.875 2.125 -6 1 C-3.3125 1.3125 -3.3125 1.3125 -1 2 C-0.67 1.34 -0.34 0.68 0 0 Z " fill="#090909" transform="translate(217,272)"/>
<path d="M0 0 C0.5775 0.763125 1.155 1.52625 1.75 2.3125 C3.71703093 4.66200917 5.48476744 6.29323505 8 8 C5.36 8 2.72 8 0 8 C0 5.36 0 2.72 0 0 Z " fill="#4E4E4E" transform="translate(0,325)"/>
<path d="M0 0 C2.64 0 5.28 0 8 0 C8 2.64 8 5.28 8 8 C7.4225 7.236875 6.845 6.47375 6.25 5.6875 C4.28296907 3.33799083 2.51523256 1.70676495 0 0 Z " fill="#4E4E4E" transform="translate(226,0)"/>
<path d="M0 0 C2.31 0 4.62 0 7 0 C6.02433888 1.16959987 5.044375 2.33561177 4.0625 3.5 C3.51722656 4.1496875 2.97195312 4.799375 2.41015625 5.46875 C1.94480469 5.9740625 1.47945313 6.479375 1 7 C0.67 7 0.34 7 0 7 C0 4.69 0 2.38 0 0 Z " fill="#484848" transform="translate(0,0)"/>
</svg>
